<svg width="253" height="253" viewBox="0 0 253 253" fill="none" xmlns="http://www.w3.org/2000/svg">
<path fill-rule="evenodd" clip-rule="evenodd" d="M112.314 229.049C103.617 227.84 94.9329 225.497 86.4542 221.939C33.7448 199.822 8.94475 139.164 31.0616 86.4542C34.2535 78.8473 38.2481 71.8217 42.9057 65.4345C46.5317 69.0581 50.2513 72.5052 53.7909 75.7855C55.1159 77.0134 56.4156 78.2179 57.6758 79.3996C65.2181 86.4721 71.7098 93.0332 76.5096 100.418C81.1517 107.559 83.819 113.935 83.4912 119.345C83.0675 126.335 81.6397 133.213 80.0701 140.774L80.0701 140.774C79.4028 143.988 78.71 147.326 78.0577 150.848C77.6498 153.051 77.1641 156.132 77.0237 159.362C76.8939 162.35 76.9883 166.663 78.5646 170.717C80.5065 175.71 84.5576 178.255 87.0791 179.478C89.7547 180.776 92.6149 181.508 94.8163 181.974C96.73 182.38 98.7193 182.696 100.258 182.941L100.259 182.941L100.26 182.941C100.528 182.984 100.783 183.024 101.022 183.062C101.894 183.203 102.561 183.317 103.097 183.424C103.568 183.518 103.754 183.571 103.755 183.571L103.754 183.57C108.864 185.279 110.131 187.297 110.878 189.273C112.092 192.485 112.314 197.036 112.314 205.168V205.217V205.267V205.316V205.365V205.415V205.464V205.514V205.563V205.612V205.662V205.711V205.761V205.81V205.86V205.909V205.958V206.008V206.057V206.107V206.156V206.205V206.255V206.304V206.354V206.403V206.453V206.502V206.551V206.601V206.65V206.7V206.749V206.798V206.848V206.897V206.947V206.996V207.046V207.095V207.144V207.194V207.243V207.293V207.342V207.391V207.441V207.49V207.54V207.589V207.639V207.688V207.737V207.787V207.836V207.886V207.935V207.984V208.034V208.083V208.133V208.182V208.232V208.281V208.33V208.38V208.429V208.479V208.528V208.577V208.627V208.676V208.726V208.775V208.825V208.874V208.923V208.973V209.022V209.072V209.121V209.17V209.22V209.269V209.319V209.368V209.418V209.467V209.516V209.566V209.615V209.665V209.714V209.764V209.813V209.862V209.912V209.961V210.011V210.06V210.109V210.159V210.208V210.258V210.307V210.357V210.406V210.455V210.505V210.554V210.604V210.653V210.702V210.752V210.801V210.851V210.9V210.95V210.999V211.048V211.098V211.147V211.197V211.246V211.295V211.345V211.394V211.444V211.493V211.543V211.592V211.641V211.691V211.74V211.79V211.839V211.888V211.938V211.987V212.037V212.086V212.136V212.185V212.234V212.284V212.333V212.383V212.432V212.481V212.531V212.58V212.63V212.679V212.729V212.778V212.827V212.877V212.926V212.976V213.025V213.074V213.124V213.173V213.223V213.272V213.322V213.371V213.42V213.47V213.519V213.569V213.618V213.667V213.717V213.766V213.816V213.865V213.915V213.964V214.013V214.063V214.112V214.162V214.211V214.26V214.31V214.359V214.409V214.458V214.508V214.557V214.606V214.656V214.705V214.755V214.804V214.854V214.903V214.952V215.002V215.051V215.101V215.15V215.199V215.249V215.298V215.348V215.397V215.447V215.496V215.545V215.595V215.644V215.694V215.743V215.792V215.842V215.891V215.941V215.99V216.04V216.089V216.138V216.188V216.237V216.287V216.336V216.385V216.435V216.484V216.534V216.583V216.633V216.682V216.731V216.781V216.83V216.88V216.929V216.978V217.028V217.077V217.127V217.176V217.226V217.275V217.324V217.374V217.423V217.473V217.522V217.571V217.621V217.67V217.72V217.769V217.819V217.868V217.917V217.967V218.016V218.066V218.115V218.164V218.214V218.263V218.313V218.362V218.412V218.461V218.51V218.56V218.609V218.659V218.708V218.757V218.807V218.856V218.906V218.955V219.005V219.054V219.103V219.153V219.202V219.252V219.301V219.35V219.4V219.449V219.499V219.548V219.598V219.647V219.696V219.746V219.795V219.845V219.894V219.943V219.993V220.042V220.092V220.141V220.191V220.24V220.289V220.339V220.388V220.438V220.487V220.536V220.586V220.635V220.685V220.734V220.784V220.833V220.882V220.932V220.981V221.031V221.08V221.13V221.179V221.228V221.278V221.327V221.377V221.426V221.475V221.525V221.574V221.624V221.673V221.723V221.772V221.821V221.871V221.92V221.97V222.019V222.068V222.118V222.167V222.217V222.266V222.316V222.365V222.414V222.464V222.513V222.563V222.612V222.661V222.711V222.76V222.81V222.859V222.909V222.958V223.007V223.057V223.106V223.156V223.205V223.254V223.304V223.353V223.403V223.452V223.502V223.551V223.6V223.65V223.699V223.749V223.798V223.847V223.897V223.946V223.996V224.045V224.095V224.144V224.193V224.243V224.292V224.342V224.391V224.44V224.49V224.539V224.589V224.638V224.688V224.737V224.786V224.836V224.885V224.935V224.984V225.033V225.083V225.132V225.182V225.231V225.281V225.33V225.379V225.429V225.478V225.528V225.577V225.626V225.676V225.725V225.775V225.824V225.874V225.923V225.972V226.022V226.071V226.121V226.17V226.22V226.269V226.318V226.368V226.417V226.467V226.516V226.565V226.615V226.664V226.714V226.763V226.813V226.862V226.911V226.961V227.01V227.06V227.109V227.158V227.208V227.257V227.307V227.356V227.406V227.455V227.504V227.554V227.603V227.653V227.702V227.751V227.801V227.85V227.9V227.949V227.999V228.048V228.097V228.147V228.196V228.246V228.295V228.344V228.394V228.443V228.493V228.542V228.592V228.641V228.69V228.74V228.789V228.839V228.888V228.937V228.987V229.036V229.049ZM134.314 229.727V229.679V229.629V229.58V229.53V229.481V229.432V229.382V229.333V229.283V229.234V229.185V229.135V229.086V229.036V228.987V228.937V228.888V228.839V228.789V228.74V228.69V228.641V228.592V228.542V228.493V228.443V228.394V228.344V228.295V228.246V228.196V228.147V228.097V228.048V227.999V227.949V227.9V227.85V227.801V227.751V227.702V227.653V227.603V227.554V227.504V227.455V227.406V227.356V227.307V227.257V227.208V227.158V227.109V227.06V227.01V226.961V226.911V226.862V226.813V226.763V226.714V226.664V226.615V226.565V226.516V226.467V226.417V226.368V226.318V226.269V226.22V226.17V226.121V226.071V226.022V225.972V225.923V225.874V225.824V225.775V225.725V225.676V225.626V225.577V225.528V225.478V225.429V225.379V225.33V225.281V225.231V225.182V225.132V225.083V225.033V224.984V224.935V224.885V224.836V224.786V224.737V224.688V224.638V224.589V224.539V224.49V224.44V224.391V224.342V224.292V224.243V224.193V224.144V224.095V224.045V223.996V223.946V223.897V223.847V223.798V223.749V223.699V223.65V223.6V223.551V223.502V223.452V223.403V223.353V223.304V223.254V223.205V223.156V223.106V223.057V223.007V222.958V222.909V222.859V222.81V222.76V222.711V222.661V222.612V222.563V222.513V222.464V222.414V222.365V222.316V222.266V222.217V222.167V222.118V222.068V222.019V221.97V221.92V221.871V221.821V221.772V221.723V221.673V221.624V221.574V221.525V221.475V221.426V221.377V221.327V221.278V221.228V221.179V221.13V221.08V221.031V220.981V220.932V220.882V220.833V220.784V220.734V220.685V220.635V220.586V220.536V220.487V220.438V220.388V220.339V220.289V220.24V220.191V220.141V220.092V220.042V219.993V219.943V219.894V219.845V219.795V219.746V219.696V219.647V219.598V219.548V219.499V219.449V219.4V219.35V219.301V219.252V219.202V219.153V219.103V219.054V219.005V218.955V218.906V218.856V218.807V218.757V218.708V218.659V218.609V218.56V218.51V218.461V218.412V218.362V218.313V218.263V218.214V218.164V218.115V218.066V218.016V217.967V217.917V217.868V217.819V217.769V217.72V217.67V217.621V217.571V217.522V217.473V217.423V217.374V217.324V217.275V217.226V217.176V217.127V217.077V217.028V216.978V216.929V216.88V216.83V216.781V216.731V216.682V216.633V216.583V216.534V216.484V216.435V216.385V216.336V216.287V216.237V216.188V216.138V216.089V216.04V215.99V215.941V215.891V215.842V215.792V215.743V215.694V215.644V215.595V215.545V215.496V215.447V215.397V215.348V215.298V215.249V215.199V215.15V215.101V215.051V215.002V214.952V214.903V214.854V214.804V214.755V214.705V214.656V214.606V214.557V214.508V214.458V214.409V214.359V214.31V214.26V214.211V214.162V214.112V214.063V214.013V213.964V213.915V213.865V213.816V213.766V213.717V213.667V213.618V213.569V213.519V213.47V213.42V213.371V213.322V213.272V213.223V213.173V213.124V213.074V213.025V212.976V212.926V212.877V212.827V212.778V212.729V212.679V212.63V212.58V212.531V212.481V212.432V212.383V212.333V212.284V212.234V212.185V212.136V212.086V212.037V211.987V211.938V211.888V211.839V211.79V211.74V211.691V211.641V211.592V211.543V211.493V211.444V211.394V211.345V211.295V211.246V211.197V211.147V211.098V211.048V210.999V210.95V210.9V210.851V210.801V210.752V210.702V210.653V210.604V210.554V210.505V210.455V210.406V210.357V210.307V210.258V210.208V210.159V210.109V210.06V210.011V209.961V209.912V209.862V209.813V209.764V209.714V209.665V209.615V209.566V209.516V209.467V209.418V209.368V209.319V209.269V209.22V209.17V209.121V209.072V209.022V208.973V208.923V208.874V208.825V208.775V208.726V208.676V208.627V208.577V208.528V208.479V208.429V208.38V208.33V208.281V208.232V208.182V208.133V208.083V208.034V207.984V207.935V207.886V207.836V207.787V207.737V207.688V207.639V207.589V207.54V207.49V207.441V207.391V207.342V207.293V207.243V207.194V207.144V207.095V207.046V206.996V206.947V206.897V206.848V206.798V206.749V206.7V206.65V206.601V206.551V206.502V206.453V206.403V206.354V206.304V206.255V206.205V206.156V206.107V206.057V206.008V205.958V205.909V205.86V205.81V205.761V205.711V205.662V205.612V205.563V205.514V205.464V205.415V205.365V205.316V205.267V205.217V205.168L134.314 204.848C134.314 197.75 134.315 189.055 131.457 181.494C128.09 172.587 121.308 166.232 110.686 162.691C108.625 162.004 106.158 161.606 104.593 161.354L104.593 161.354L104.523 161.343C104.358 161.316 104.195 161.29 104.035 161.265L103.594 161.194C102.042 160.946 100.694 160.731 99.3787 160.452C99.2474 160.425 99.1215 160.397 99.0007 160.37L99.003 160.317C99.0797 158.552 99.3656 156.605 99.6899 154.854C100.149 152.376 100.71 149.671 101.302 146.818L101.303 146.814L101.303 146.813L101.304 146.81C102.99 138.685 104.924 129.364 105.451 120.675C106.229 107.833 100.104 96.349 94.9554 88.4278C88.5948 78.6423 80.3913 70.5408 72.7242 63.3514C71.26 61.9784 69.8226 60.6445 68.4138 59.3372L68.4122 59.3357L68.4107 59.3343C64.6267 55.8227 61.0494 52.503 57.7144 49.1331C73.1222 35.4537 92.3026 26.689 112.612 23.9199C112.927 28.0083 113.443 31.9094 113.916 35.4921L113.916 35.4923L113.951 35.7521C114.737 41.7021 115.398 46.8118 115.398 51.9295C115.398 59.8914 116.498 67.7151 119.012 75.5199C120.71 80.7927 123.22 85.2789 126.868 88.7742C130.547 92.2996 134.683 94.1442 138.502 95.2121C141.856 96.15 145.388 96.5831 148.14 96.9205L148.664 96.9849C150.866 97.2568 152.807 97.5095 154.673 97.8747C154.824 98.4121 154.995 99.1273 155.169 100.058C155.45 101.557 155.642 103.006 155.864 104.683L155.865 104.683L155.865 104.684C155.956 105.374 156.053 106.104 156.163 106.891C156.463 109.034 156.952 112.414 158.107 115.3C162.074 125.218 171.895 127.164 176.731 127.725C179.465 128.043 182.234 128.093 184.312 128.132H184.312L184.427 128.134C186.816 128.178 188.176 128.215 189.141 128.343C192.831 128.835 196.985 129.185 201.397 127.971C205.764 126.769 209.228 124.352 212.312 121.953C217.126 118.21 221.617 114.428 226.053 109.814C226.351 109.504 226.839 109.037 227.711 108.203C227.891 108.031 228.082 107.848 228.282 107.655C231.85 126.827 230.048 147.221 221.939 166.547C220.886 169.056 219.746 171.502 218.523 173.883C218.43 173.757 218.34 173.636 218.254 173.52C218.124 173.344 218.002 173.18 217.891 173.028C217.486 172.473 217.052 171.812 216.458 170.891L216.251 170.568L216.251 170.568C215.74 169.772 215.107 168.787 214.443 167.826C212.95 165.665 210.696 162.707 207.391 160.353C203.977 157.922 200.287 157.277 198.627 156.992C198.001 156.884 197.655 156.831 197.38 156.788C197.085 156.742 196.87 156.709 196.475 156.634C196.176 156.578 196.036 156.542 196.003 156.533C190.014 154.321 184.293 155.731 180.118 158.876C176.461 161.63 174.278 165.419 173.019 168.423C171.187 172.794 168.723 175.793 163.354 179.704C160.893 181.497 157.601 183.933 154.727 186.848C151.868 189.747 148.652 193.873 147.301 199.32C145.622 206.091 147.739 211.862 150.523 215.908C153.126 219.692 156.562 222.397 158.906 224.066C159.139 224.232 159.38 224.396 159.626 224.558C151.476 227.314 142.972 229.065 134.314 229.727ZM135.761 32.8696C135.311 29.4639 134.901 26.3238 134.634 23.2923C145.342 24.1381 156.101 26.6785 166.547 31.0616C191.167 41.3926 209.699 60.1328 220.203 82.5442C218.717 83.9438 217.009 85.9945 215.927 88.822C215.659 89.1422 215.259 89.5826 214.707 90.1477C214.029 90.8419 213.289 91.5544 212.502 92.3073L212.304 92.4963C211.642 93.1295 210.83 93.9056 210.195 94.5661C206.768 98.1294 203.176 101.188 198.805 104.588C197.534 105.576 196.734 106.123 196.185 106.446C195.93 106.596 195.767 106.675 195.678 106.714C195.597 106.749 195.562 106.759 195.559 106.76L195.559 106.76L195.558 106.76C195.556 106.76 195.533 106.767 195.469 106.775C195.398 106.784 195.249 106.797 194.991 106.797C194.428 106.797 193.553 106.737 192.048 106.536C189.709 106.224 187.112 106.178 185.177 106.144L184.831 106.137C182.569 106.096 180.815 106.052 179.267 105.872C178.872 105.826 178.531 105.776 178.24 105.723C178.148 105.199 178.054 104.581 177.951 103.842C177.888 103.39 177.819 102.873 177.745 102.311L177.744 102.306L177.743 102.299C177.499 100.457 177.191 98.1353 176.794 96.0119C176.274 93.2334 175.407 89.5817 173.621 86.24C171.743 82.7254 168.307 78.6185 162.472 77.0965C158.311 76.0108 154.388 75.5246 151.36 75.1507C148.053 74.7424 146.079 74.487 144.426 74.0246C143.02 73.6316 142.451 73.2363 142.089 72.8894C141.696 72.5124 140.828 71.4939 139.953 68.7762C138.202 63.339 137.398 57.8089 137.398 51.9295C137.398 45.2502 136.549 38.8259 135.802 33.1827L135.761 32.8696ZM242.226 175.059C215.408 238.972 141.855 269.044 77.9419 242.226C14.0287 215.408 -16.0429 141.855 10.7752 77.9419C37.5932 14.0287 111.146 -16.0429 175.059 10.7752C238.972 37.5932 269.044 111.146 242.226 175.059ZM96.6811 159.684C96.5888 159.64 96.6014 159.638 96.688 159.688L96.6811 159.684ZM193.757 176.082C193.757 176.082 193.754 176.086 193.748 176.094C193.754 176.086 193.757 176.082 193.757 176.082ZM176.308 197.487C183.599 192.175 188.952 186.55 192.704 178.31C193.129 178.386 193.527 178.451 193.856 178.504L194.145 178.55C194.438 178.597 194.664 178.633 194.9 178.674C194.969 178.686 195.032 178.697 195.09 178.707C195.373 179.017 195.783 179.521 196.344 180.333C196.783 180.969 197.204 181.623 197.735 182.45L197.96 182.799C198.55 183.715 199.29 184.858 200.109 185.982C200.261 186.19 200.39 186.366 200.503 186.522C200.761 186.874 200.94 187.118 201.127 187.386C201.263 187.58 201.348 187.71 201.4 187.793C201.615 189.292 201.979 190.743 202.21 191.661L202.221 191.707L202.257 191.849L202.257 191.849C202.519 192.891 202.68 193.531 202.795 194.154C202.811 194.24 202.825 194.319 202.836 194.39C202.846 194.45 202.854 194.504 202.861 194.554C202.513 195.153 202.014 195.81 200.97 197.183C200.687 197.556 200.364 197.981 199.993 198.472C199.902 198.559 199.725 198.725 199.435 198.983C198.991 199.376 198.564 199.739 198.058 200.17L198.057 200.171C197.736 200.444 197.384 200.744 196.975 201.096C196.231 201.736 195.256 202.586 194.36 203.474C193.195 203.822 192.069 204.37 191.031 205.126L190.742 205.337C184.376 209.975 183.182 210.845 180.799 211.007L180.648 210.908C180.546 210.841 180.423 210.761 180.255 210.652C179.584 210.217 178.536 209.55 177.238 208.909C175.658 208.129 174.636 207.668 173.894 207.333L173.894 207.333C172.86 206.867 172.368 206.645 171.667 206.146C170.904 205.602 170.241 205.08 169.692 204.576C169.417 204.323 169.199 204.101 169.028 203.911C169.283 203.53 169.703 202.993 170.392 202.295C171.865 200.801 173.817 199.301 176.308 197.487ZM202.9 194.974C202.9 194.974 202.9 194.971 202.9 194.964C202.9 194.971 202.9 194.974 202.9 194.974Z" fill="black"/>
</svg>
