<svg width="252" height="252" viewBox="0 0 252 252" fill="none" xmlns="http://www.w3.org/2000/svg">
<path fill-rule="evenodd" clip-rule="evenodd" d="M221.024 165.631C198.907 218.341 138.248 243.141 85.5389 221.024C57.3732 209.205 37.1766 186.382 27.8495 159.647C32.4743 163.212 37.5772 166.196 43.0548 168.494C59.6849 175.472 78.4058 175.558 95.0992 168.733C104.797 164.769 113.348 158.66 120.181 150.977C123.578 147.156 126.551 142.946 129.028 138.417L129.497 138.613C134.407 126.911 143.765 117.638 155.513 112.835C167.26 108.033 180.434 108.093 192.137 113.003C203.839 117.914 213.112 127.272 217.915 139.019C220.186 144.574 222.637 150.98 224.071 157.428C223.178 160.179 222.163 162.916 221.024 165.631ZM228.779 117.358C221.517 107.287 211.57 99.3079 199.932 94.4245C183.302 87.4466 164.581 87.3606 147.888 94.1857C138.189 98.1511 129.636 104.261 122.802 111.946C117.96 117.393 113.981 123.631 111.07 130.457C105.646 139.299 97.1712 146.119 87.4744 150.084C75.7272 154.886 62.5532 154.826 50.8505 149.916C39.1479 145.005 29.8752 135.647 25.0724 123.9C23.9843 121.238 23.1348 118.499 22.5288 115.717C23.5024 105.583 25.9998 95.4211 30.1464 85.5389C52.2633 32.8296 112.922 8.02948 165.631 30.1464C202.546 45.636 225.772 80.03 228.779 117.358ZM8.54984 80.2725C8.97038 79.188 9.40702 78.106 9.85989 77.0267C36.678 13.1134 110.23 -16.9582 174.144 9.85989C238.057 36.678 268.128 110.23 241.31 174.144C214.492 238.057 140.94 268.128 77.0267 241.31C19.4906 217.168 -10.6202 155.153 3.50848 96.3903C4.58784 90.9337 6.29304 85.5277 8.50586 80.2541L8.54984 80.2725Z" fill="black"/>
</svg>
