<svg width="85" height="86" viewBox="0 0 85 86" fill="none" xmlns="http://www.w3.org/2000/svg">
<path d="M42.4997 7.95996C28.7934 7.95996 17.708 19.0454 17.708 32.7516C17.708 51.3454 42.4997 78.7933 42.4997 78.7933C42.4997 78.7933 67.2913 51.3454 67.2913 32.7516C67.2913 19.0454 56.2059 7.95996 42.4997 7.95996ZM24.7913 32.7516C24.7913 22.9766 32.7247 15.0433 42.4997 15.0433C52.2747 15.0433 60.208 22.9766 60.208 32.7516C60.208 42.9516 50.008 58.2162 42.4997 67.7433C35.133 58.287 24.7913 42.8454 24.7913 32.7516Z" fill="black"/>
<path d="M42.4997 41.6058C47.3897 41.6058 51.3538 37.6416 51.3538 32.7516C51.3538 27.8616 47.3897 23.8975 42.4997 23.8975C37.6097 23.8975 33.6455 27.8616 33.6455 32.7516C33.6455 37.6416 37.6097 41.6058 42.4997 41.6058Z" fill="black"/>
</svg>
