<svg width="85" height="86" viewBox="0 0 85 86" fill="none" xmlns="http://www.w3.org/2000/svg">
<path d="M67.2913 29.2103H63.7497V11.502H21.2497V29.2103H17.708C11.8288 29.2103 7.08301 33.9561 7.08301 39.8353V61.0853H21.2497V75.252H63.7497V61.0853H77.9163V39.8353C77.9163 33.9561 73.1705 29.2103 67.2913 29.2103ZM28.333 18.5853H56.6663V29.2103H28.333V18.5853ZM56.6663 61.0853V68.1686H28.333V54.002H56.6663V61.0853ZM63.7497 54.002V46.9186H21.2497V54.002H14.1663V39.8353C14.1663 37.8874 15.7601 36.2936 17.708 36.2936H67.2913C69.2393 36.2936 70.833 37.8874 70.833 39.8353V54.002H63.7497Z" fill="black"/>
<path d="M63.7497 45.1478C65.7057 45.1478 67.2913 43.5621 67.2913 41.6061C67.2913 39.6501 65.7057 38.0645 63.7497 38.0645C61.7937 38.0645 60.208 39.6501 60.208 41.6061C60.208 43.5621 61.7937 45.1478 63.7497 45.1478Z" fill="black"/>
</svg>
