<svg width="85" height="86" viewBox="0 0 85 86" fill="none" xmlns="http://www.w3.org/2000/svg">
<path d="M23.1625 18.5853C23.375 21.7374 23.9062 24.8186 24.7562 27.7582L20.5063 32.0082C19.0542 27.7582 18.1333 23.2603 17.8146 18.5853H23.1625ZM58.0833 61.1561C61.0938 62.0061 64.175 62.5374 67.2917 62.7499V68.027C62.6167 67.7082 58.1188 66.7874 53.8333 65.3707L58.0833 61.1561ZM26.5625 11.502H14.1667C12.2188 11.502 10.625 13.0957 10.625 15.0436C10.625 48.2999 37.5771 75.252 70.8333 75.252C72.7812 75.252 74.375 73.6582 74.375 71.7103V59.3499C74.375 57.402 72.7812 55.8082 70.8333 55.8082C66.4417 55.8082 62.1563 55.0999 58.1896 53.7895C57.8354 53.6478 57.4458 53.6124 57.0917 53.6124C56.1708 53.6124 55.2854 53.9665 54.5771 54.6395L46.7854 62.4311C36.7625 57.2957 28.5458 49.1145 23.4458 39.0915L31.2375 31.2999C32.2292 30.3082 32.5125 28.927 32.1229 27.6874C30.8125 23.7207 30.1042 19.4707 30.1042 15.0436C30.1042 13.0957 28.5104 11.502 26.5625 11.502Z" fill="black"/>
</svg>
