<svg id="레이어_1" data-name="레이어 1" xmlns="http://www.w3.org/2000/svg" xmlns:xlink="http://www.w3.org/1999/xlink" viewBox="0 0 108.41 24.6"><defs><style>.cls-1{fill:#050000;}.cls-2{fill:url(#무제_그라디언트_252);}.cls-3{fill:url(#무제_그라디언트_7);}.cls-4{fill:url(#무제_그라디언트_252-2);}.cls-5{fill:url(#무제_그라디언트_7-2);}.cls-6{fill:url(#무제_그라디언트_252-3);}.cls-7{fill:url(#무제_그라디언트_7-3);}.cls-8{fill:url(#무제_그라디언트_157);}.cls-9{fill:url(#무제_그라디언트_3);}.cls-10{fill:url(#무제_그라디언트_157-2);}.cls-11{fill:url(#무제_그라디언트_3-2);}.cls-12{fill:url(#무제_그라디언트_157-3);}.cls-13{fill:url(#무제_그라디언트_3-3);}</style><linearGradient id="무제_그라디언트_252" x1="15.55" y1="22.63" x2="15.55" y2="10.45" gradientTransform="translate(-4.58 1.34) rotate(2.32)" gradientUnits="userSpaceOnUse"><stop offset="0" stop-color="#fff"/><stop offset="1" stop-color="#f6d1b0"/></linearGradient><linearGradient id="무제_그라디언트_7" x1="18.01" y1="11.58" x2="28.14" y2="21.06" gradientTransform="translate(-4.58 1.34) rotate(2.32)" gradientUnits="userSpaceOnUse"><stop offset="0" stop-color="#f6d1b0"/><stop offset="1" stop-color="#fff"/></linearGradient><linearGradient id="무제_그라디언트_252-2" x1="-134.4" y1="-214.4" x2="-134.4" y2="-226.57" gradientTransform="matrix(0.46, -0.89, -0.89, -0.46, -125.79, -208.61)" xlink:href="#무제_그라디언트_252"/><linearGradient id="무제_그라디언트_7-2" x1="-131.94" y1="-225.45" x2="-121.81" y2="-215.97" gradientTransform="matrix(0.46, -0.89, -0.89, -0.46, -125.79, -208.61)" xlink:href="#무제_그라디언트_7"/><linearGradient id="무제_그라디언트_252-3" x1="-76.07" y1="-325.59" x2="-76.07" y2="-337.77" gradientTransform="translate(279.45 -208.61) rotate(-117.68)" xlink:href="#무제_그라디언트_252"/><linearGradient id="무제_그라디언트_7-3" x1="-73.61" y1="-336.64" x2="-63.48" y2="-327.16" gradientTransform="translate(279.45 -208.61) rotate(-117.68)" xlink:href="#무제_그라디언트_7"/><linearGradient id="무제_그라디언트_157" x1="15.15" y1="22.07" x2="15.15" y2="11.02" gradientTransform="translate(-4.58 1.34) rotate(2.32)" gradientUnits="userSpaceOnUse"><stop offset="0" stop-color="#c7cbcd"/><stop offset="1" stop-color="#263c50"/></linearGradient><linearGradient id="무제_그라디언트_3" x1="17.38" y1="12.04" x2="26.57" y2="20.64" gradientTransform="translate(-4.58 1.34) rotate(2.32)" gradientUnits="userSpaceOnUse"><stop offset="0" stop-color="#263c50"/><stop offset="1" stop-color="#c7cbcd"/></linearGradient><linearGradient id="무제_그라디언트_157-2" x1="-134.9" y1="-215.12" x2="-134.9" y2="-226.16" gradientTransform="matrix(0.46, -0.89, -0.89, -0.46, -125.79, -208.61)" xlink:href="#무제_그라디언트_157"/><linearGradient id="무제_그라디언트_3-2" x1="-132.67" y1="-225.14" x2="-123.48" y2="-216.54" gradientTransform="matrix(0.46, -0.89, -0.89, -0.46, -125.79, -208.61)" xlink:href="#무제_그라디언트_3"/><linearGradient id="무제_그라디언트_157-3" x1="-75.87" y1="-327.63" x2="-75.87" y2="-338.68" gradientTransform="translate(279.45 -208.61) rotate(-117.68)" xlink:href="#무제_그라디언트_157"/><linearGradient id="무제_그라디언트_3-3" x1="-73.64" y1="-337.66" x2="-64.45" y2="-329.06" gradientTransform="translate(279.45 -208.61) rotate(-117.68)" xlink:href="#무제_그라디언트_3"/></defs><path class="cls-1" d="M31.1,17.53c-.19-.24-.4-.52-.63-.86a6.39,6.39,0,0,1-.63-1.17,8.29,8.29,0,0,1-.67-3.32,7.86,7.86,0,0,1,.19-1.81,8.29,8.29,0,0,1,.48-1.48,7.62,7.62,0,0,1,.62-1.18,10.71,10.71,0,0,1,.64-.88h.65a7.55,7.55,0,0,0-1.28,2.61,11.19,11.19,0,0,0-.35,2.74,10.72,10.72,0,0,0,.36,2.76,7.7,7.7,0,0,0,1.27,2.59Zm8.37-3.82H35.75v3h-1v-3H31V12.8h8.45Zm-1-1.49a5.71,5.71,0,0,1-.82-.16,5.26,5.26,0,0,1-1.06-.39,4.42,4.42,0,0,1-.85-.55,3.22,3.22,0,0,1-.53-.54,2,2,0,0,1-.21.25c-.09.09-.19.19-.31.29a4.1,4.1,0,0,1-.4.29l-.44.26a5.13,5.13,0,0,1-1.07.39,6,6,0,0,1-.82.16l-.61-.79a5.52,5.52,0,0,0,1-.17,4.42,4.42,0,0,0,1.12-.44,3.6,3.6,0,0,0,.83-.62,1.09,1.09,0,0,0,.37-.72s.06-.06,0-.13V9.21H32.07V8.35h6.36v.86H35.77v.13a.17.17,0,0,0,0,.12.75.75,0,0,0,.11.37,1.84,1.84,0,0,0,.28.36,3.22,3.22,0,0,0,.38.35,3,3,0,0,0,.44.28,5.5,5.5,0,0,0,1.15.44,5,5,0,0,0,.94.17Zm2.84,0a8.53,8.53,0,0,1-.66,3.32,6.39,6.39,0,0,1-.63,1.17,8.79,8.79,0,0,1-.63.86h-.65a7.87,7.87,0,0,0,1.28-2.6,10.58,10.58,0,0,0,.35-2.75,10.73,10.73,0,0,0-.35-2.74,7.73,7.73,0,0,0-1.28-2.61h.65c.2.25.41.54.64.88a6.21,6.21,0,0,1,.62,1.18,8.3,8.3,0,0,1,.47,1.48A7.86,7.86,0,0,1,41.34,12.18Z"/><path class="cls-1" d="M49.9,6.54a5.39,5.39,0,0,1-.66,2.15A6.84,6.84,0,0,1,47.8,10.5a9.27,9.27,0,0,1-2.11,1.42,13.21,13.21,0,0,1-2.65,1l-.68-1.07a11.81,11.81,0,0,0,2.21-.79,9.9,9.9,0,0,0,1.63-1A6,6,0,0,0,47.33,9,5.27,5.27,0,0,0,48,7.81H43.08V6.54ZM44.41,17.87V13.15h8.77v4.72Zm7.21-3.48H46v2.24h5.66Zm0-1.71V6h1.56V8.68H55V10H53.18v2.73Z"/><path class="cls-1" d="M63.14,12.52a19.49,19.49,0,0,1-1.67-1.12A17.12,17.12,0,0,1,59.83,10a11.52,11.52,0,0,1-1.62,1.43,20.76,20.76,0,0,1-1.8,1.19l-.95-.94a17.7,17.7,0,0,0,1.69-1.21,11.34,11.34,0,0,0,1.36-1.29A1.84,1.84,0,0,0,59,8V6.28h1.6V8a1.53,1.53,0,0,0,.13.64,2.51,2.51,0,0,0,.39.59,10.83,10.83,0,0,0,1.28,1.19,19.46,19.46,0,0,0,1.62,1.14Zm3.79,3.23a2.29,2.29,0,0,1-.29,1.13,2.81,2.81,0,0,1-.83.89,4.08,4.08,0,0,1-1.28.59,6.66,6.66,0,0,1-3.24,0A4,4,0,0,1,60,17.77a2.6,2.6,0,0,1-.83-.89,2.2,2.2,0,0,1-.3-1.13,2.23,2.23,0,0,1,.3-1.14,2.69,2.69,0,0,1,.83-.89,4.24,4.24,0,0,1,1.27-.58,6.66,6.66,0,0,1,3.24,0,4.3,4.3,0,0,1,1.28.58,2.92,2.92,0,0,1,.83.89A2.33,2.33,0,0,1,66.93,15.75Zm-1.58,0a1.14,1.14,0,0,0-.19-.66,1.56,1.56,0,0,0-.52-.5,2.82,2.82,0,0,0-.77-.31,4.61,4.61,0,0,0-1.91,0,2.76,2.76,0,0,0-.78.31,1.66,1.66,0,0,0-.52.5,1.21,1.21,0,0,0-.18.66,1.26,1.26,0,0,0,.18.66,1.63,1.63,0,0,0,.52.49,2.5,2.5,0,0,0,.78.31,4.2,4.2,0,0,0,1.91,0,2.54,2.54,0,0,0,.77-.31,1.54,1.54,0,0,0,.52-.49A1.18,1.18,0,0,0,65.35,15.75Zm0-2.74V9.36H62.79V8h2.56V6h1.56v7Z"/><path class="cls-1" d="M69.12,16.47V15.21h5.46V12.68h1.6v2.53h5.47v1.26Zm10.8-3.06A21.17,21.17,0,0,1,77.55,12a19.93,19.93,0,0,1-2.17-1.72A22.15,22.15,0,0,1,73.2,12a20.16,20.16,0,0,1-2.36,1.41l-.85-1a20.57,20.57,0,0,0,2.14-1.36,19.16,19.16,0,0,0,1.92-1.62,1.83,1.83,0,0,0,.38-.53,1.43,1.43,0,0,0,.15-.66V6.41h1.6V8.25a1.56,1.56,0,0,0,.14.66,1.87,1.87,0,0,0,.39.53,18.11,18.11,0,0,0,1.92,1.62,19.56,19.56,0,0,0,2.14,1.36Z"/><path class="cls-1" d="M82.49,16.41V15.14H95v1.27Zm1.12-3.53V11.64h1.8l-.06-3.33h1.56l0,3.33h3.57l.07-3.33h1.56l-.07,3.33h1.8v1.24Zm.21-5V6.67h9.86V7.92Z"/><path class="cls-1" d="M95.87,16.47V15.21h12.54v1.26Zm1.67-3.06V6.57h9.25V7.81h-7.7V9.34h7.63v1.22H99.09v1.61H107v1.24Z"/><polygon class="cls-2" points="6.52 19.42 6.53 24.43 14.05 17.57 14.05 12.55 6.52 19.42"/><path class="cls-3" d="M16.41,14.76l-2.36-2.21v5l7.53,7v-5l-3.91-3.64m-2.62-.11,0-1.34"/><polygon class="cls-4" points="4.34 15.63 0 13.12 9.71 10.04 14.05 12.55 4.34 15.63"/><path class="cls-5" d="M13.32,9.4l.73,3.15L9.71,10,7.38,0l4.35,2.51,1.2,5.21M11.71,10l1.15.68"/><polygon class="cls-6" points="23.75 15.63 28.1 13.12 18.39 10.04 14.05 12.55 23.75 15.63"/><path class="cls-7" d="M14.78,9.4l-.73,3.15L18.39,10,20.72,0,16.37,2.51l-1.2,5.21M16.39,10l-1.15.69"/><polygon class="cls-8" points="6.47 19.32 6.48 23.87 13.3 17.65 13.3 13.09 6.47 19.32"/><path class="cls-9" d="M15.44,15.09l-2.14-2v4.55L20.13,24V19.47l-3.55-3.31m-2.37-.09,0-1.22"/><polygon class="cls-10" points="4.5 15.89 0.56 13.61 9.36 10.81 13.3 13.09 4.5 15.89"/><path class="cls-11" d="M12.64,10.23l.66,2.86L9.36,10.81,7.25,1.71,11.19,4l1.1,4.73m-1.11,2.1,1,.62"/><polygon class="cls-12" points="22.11 15.89 26.05 13.61 17.24 10.81 13.3 13.09 22.11 15.89"/><path class="cls-13" d="M14,10.24l-.66,2.85,3.94-2.28,2.11-9.1L15.41,4l-1.1,4.72m1.11,2.11-1,.62"/></svg>