<svg width="30" height="30" viewBox="0 0 30 30" fill="none" xmlns="http://www.w3.org/2000/svg">
<path d="M2.8125 3.48574V26.5131C2.81265 26.563 2.82756 26.6118 2.85533 26.6534C2.88311 26.6949 2.92253 26.7273 2.96865 26.7465C3.01477 26.7657 3.06553 26.7709 3.11458 26.7614C3.16362 26.7518 3.20876 26.728 3.24434 26.693L15.2344 15L3.24434 3.30586C3.20876 3.27078 3.16362 3.24699 3.11458 3.23746C3.06553 3.22794 3.01477 3.23311 2.96865 3.25232C2.92253 3.27153 2.88311 3.30393 2.85533 3.34545C2.82756 3.38698 2.81265 3.43578 2.8125 3.48574V3.48574Z" fill="black"/>
<path d="M20.2617 10.1953L5.22774 1.9125L5.21836 1.90723C4.95938 1.7666 4.71328 2.11699 4.92539 2.3209L16.7104 13.5896L20.2617 10.1953Z" fill="black"/>
<path d="M4.92656 27.6791C4.71328 27.883 4.95937 28.2334 5.21953 28.0928L5.2289 28.0875L20.2617 19.8047L16.7103 16.4092L4.92656 27.6791Z" fill="black"/>
<path d="M26.3309 13.5352L22.1326 11.223L18.1852 15L22.1326 18.7752L26.3309 16.4648C27.4729 15.8338 27.4729 14.1662 26.3309 13.5352Z" fill="black"/>
</svg>
